# xmcd CD database file
#
# Track frame offsets:
#	150
#	14850
#	30130
#	41915
#	60957
#	73221
#	86470
#	99742
#	109313
#	122825
#
# Disc length: 1956 seconds
#
# Revision: 0
# Processed by: cddbd v1.5.2PL0 Copyright (c) Steve Scherf et al.
# Submitted via: CDex 1.51
#
DISCID=8607a20a
DTITLE=Johnny Wolfe - Bad Tonight
DYEAR=2001
DGENRE=Country
TTITLE0=Say Ya Do
TTITLE1=No Angels Down Below
TTITLE2=Check Engine Light
TTITLE3=Ball And Chain
TTITLE4=Tell Me True
TTITLE5=Between Us
TTITLE6=Foolish Me
TTITLE7=Forget About You
TTITLE8=Send Me Away
TTITLE9=Bad Tonight
EXTD=YEAR: 2001
EXTT0=
EXTT1=
EXTT2=
EXTT3=
EXTT4=
EXTT5=
EXTT6=
EXTT7=
EXTT8=
EXTT9=
PLAYORDER=
